PathFileType	4	(X/Y/Z)	TVC_36_Cal_03_0_static_RCNL2025.trc
DataRate	CameraRate	NumFrames	NumMarkers	Units	OrigDataRate	OrigDataStartFrame	OrigNumFrames
100	100	8	27	mm	100	18	139
Frame#	Time	R_Shoulder			L_Shoulder			C7			J_Notch			R_Elbow			L_Elbow			R_Wrist			L_Wrist			R_Asis			L_Asis			R_Psis			L_Psis			Sacral			Thoracic			Sternum			R_Thigh_Lateral			R_Knee_Lateral			R_Shank_Lateral			R_Ankle_Lateral			R_Heel			R_Toe			L_Thigh_Lateral			L_Knee_Lateral			L_Shank_Lateral			L_Ankle_Lateral			L_Heel			L_Toe		
		X1	Y1	Z1	X2	Y2	Z2	X3	Y3	Z3	X4	Y4	Z4	X5	Y5	Z5	X6	Y6	Z6	X7	Y7	Z7	X8	Y8	Z8	X9	Y9	Z9	X10	Y10	Z10	X11	Y11	Z11	X12	Y12	Z12	X13	Y13	Z13	X14	Y14	Z14	X15	Y15	Z15	X16	Y16	Z16	X17	Y17	Z17	X18	Y18	Z18	X19	Y19	Z19	X20	Y20	Z20	X21	Y21	Z21	X22	Y22	Z22	X23	Y23	Z23	X24	Y24	Z24	X25	Y25	Z25	X26	Y26	Z26	X27	Y27	Z27
18	0.17000000	-234.970612	1387.073120	45.531582	-353.596771	1373.682495	-297.494537	-342.372192	1433.395630	-105.664803	-186.307602	1318.943604	-148.459366	-228.676270	1115.958618	176.928833	-319.520050	1076.112549	-409.883148	-193.579636	897.002747	129.595932	-212.922127	886.103302	-391.503128	-187.591843	898.817139	-25.893375	-285.957520	903.142029	-267.310638	-376.034668	932.022583	-36.857849	-408.736481	924.812622	-113.268082	-392.385574	928.417603	-75.062965	-376.840393	1152.741699	-85.557686	-151.753998	1167.960938	-173.815689	-235.797989	633.016296	52.549229	-315.703430	459.751740	-2.959923	-338.873596	260.310394	25.708437	-342.941345	69.015167	-56.501484	-391.577667	55.507378	-103.112465	-218.406357	39.672523	-96.538734	-340.112518	672.944763	-357.321198	-311.408875	466.806000	-316.153534	-373.831604	275.278442	-330.302979	-308.201080	70.224586	-316.669617	-314.518982	51.188351	-253.769073	-192.946350	44.963303	-377.901154
19	0.18000000	-234.955566	1387.126221	45.566734	-353.373901	1373.781860	-297.538849	-342.289185	1433.474365	-105.649689	-186.144821	1318.947388	-148.388260	-228.950531	1116.090332	177.123703	-319.437866	1076.515747	-409.273743	-193.570908	897.099792	129.881744	-212.583214	886.151398	-391.416245	-187.627975	898.867615	-25.702591	-285.825989	903.144836	-267.250641	-376.045227	932.030029	-36.852863	-408.243774	924.523804	-113.531410	-392.144501	928.276917	-75.192137	-376.742981	1152.759155	-85.609085	-151.630798	1167.966553	-173.770477	-235.884583	632.822876	53.315266	-315.874359	459.705963	-2.842004	-339.127563	260.231171	25.693224	-342.927795	68.937309	-56.511978	-391.496094	55.516140	-103.227791	-218.352966	39.669353	-96.461006	-340.061615	672.884094	-357.133453	-311.453217	466.816467	-316.124542	-373.905273	275.244751	-330.199188	-308.185059	70.249702	-316.665405	-314.540680	51.199009	-253.744293	-192.899567	45.009541	-377.879211
20	0.19000000	-235.023727	1387.140137	45.676121	-353.143402	1373.807007	-297.631409	-342.036621	1433.284424	-105.870735	-186.065094	1319.017334	-148.219635	-229.273117	1116.264404	177.445007	-319.463898	1076.481567	-409.411621	-193.699356	897.153290	130.110428	-211.897011	886.355072	-391.810135	-187.689713	898.921875	-25.486189	-285.638428	903.250061	-267.199890	-375.961792	932.037659	-36.776764	-408.336426	924.695557	-113.415955	-392.149109	928.366608	-75.096359	-376.750793	1152.841187	-85.599762	-151.472397	1168.063843	-173.703354	-236.171799	633.002930	53.162624	-316.045288	459.679840	-2.806874	-339.287262	260.226654	25.788595	-342.921661	68.921646	-56.503082	-391.481934	55.490856	-103.271637	-218.050186	39.710255	-96.498932	-339.976562	672.913940	-357.101410	-311.439972	466.826843	-316.002075	-374.017334	275.028656	-330.126068	-308.172699	70.197060	-316.592102	-314.529633	51.192905	-253.763168	-192.893921	45.018486	-377.897949
21	0.20000000	-235.020538	1387.225220	45.667587	-352.953217	1373.874756	-297.713745	-341.866852	1433.238037	-105.974716	-185.908417	1319.067871	-148.141724	-229.409973	1116.344116	177.511292	-319.073639	1076.704712	-409.172760	-193.582283	897.428131	130.109886	-211.803780	886.466644	-391.630539	-187.766861	898.931763	-25.404600	-285.523224	903.255798	-267.095215	-375.882416	932.132874	-36.840172	-408.568817	924.950073	-113.261139	-392.225616	928.541473	-75.050655	-376.713928	1152.851074	-85.633202	-151.330841	1168.140625	-173.574295	-235.988602	632.947571	53.419266	-316.100769	459.778015	-2.739396	-339.280853	260.223267	25.786476	-342.997864	68.995216	-56.484093	-391.450043	55.522419	-103.263924	-218.025818	39.700302	-96.538864	-339.892456	672.961304	-357.074554	-311.524200	466.738251	-315.954895	-373.809723	275.216644	-330.163086	-308.205444	70.203125	-316.652985	-314.549072	51.239532	-253.804550	-192.830078	44.983051	-377.821747
22	0.21000000	-235.193588	1387.290283	45.727158	-352.690796	1373.912109	-297.810944	-342.097168	1433.355347	-105.903915	-185.814957	1319.105591	-148.039856	-229.369507	1116.303467	177.498611	-318.105408	1076.529419	-409.513336	-193.871422	897.301483	130.569870	-211.602272	886.448578	-391.564255	-187.872009	898.862793	-25.220299	-285.418060	903.238892	-267.022156	-375.947144	932.171387	-36.797108	-408.635986	924.932373	-113.240829	-392.291565	928.551880	-75.018969	-376.669189	1152.877563	-85.679619	-151.269623	1168.143188	-173.460007	-236.246033	632.925476	53.261139	-316.155151	459.768494	-2.630851	-339.373322	260.206879	25.866882	-343.005096	69.019402	-56.478119	-391.434204	55.494343	-103.202141	-218.040176	39.744961	-96.548653	-339.790222	673.049438	-357.051361	-311.508423	466.847900	-315.930969	-373.821014	275.287415	-330.098602	-308.203247	70.224838	-316.668243	-314.547913	51.241440	-253.783737	-192.965210	44.908512	-377.944580
23	0.22000000	-235.278488	1387.330688	45.715343	-352.550720	1373.863770	-297.895508	-342.150146	1433.253174	-106.057648	-185.739197	1319.164062	-148.066299	-229.666351	1116.424561	177.583298	-317.649414	1076.546875	-409.790710	-194.188644	897.345612	130.987350	-211.297272	886.480377	-391.598663	-187.917328	898.796692	-25.195383	-285.354156	903.231262	-266.933838	-376.039490	932.104065	-36.739643	-408.498932	924.881042	-113.227531	-392.269211	928.492554	-74.983587	-376.624786	1152.735596	-85.721008	-151.156906	1168.195923	-173.365387	-236.364227	632.933228	53.278500	-316.230682	459.687592	-2.584468	-339.440491	260.160583	25.906422	-342.990631	69.060059	-56.454460	-391.434875	55.547279	-103.190453	-218.293182	39.652950	-96.449699	-339.708649	672.924377	-356.951294	-311.541290	466.700073	-315.866089	-373.783966	275.303009	-330.062683	-308.206573	70.209213	-316.663147	-314.434937	51.217186	-253.730927	-192.919754	45.013313	-377.925079
24	0.23000000	-235.386780	1387.370972	45.637993	-352.299591	1373.815796	-298.063782	-342.071198	1433.238281	-106.112885	-185.659149	1319.203125	-147.976151	-229.837280	1116.682495	177.719833	-317.230743	1076.636963	-409.941559	-194.429291	897.446503	131.285065	-210.995316	886.534119	-391.536453	-187.847061	898.901123	-25.006027	-285.306824	903.261597	-266.903625	-376.056335	932.103943	-36.730293	-408.523956	924.900146	-113.293816	-392.290146	928.502045	-75.012054	-376.528687	1152.737793	-85.788940	-151.006638	1168.292236	-173.253937	-236.346542	632.875122	53.281677	-316.389862	459.627167	-2.557009	-339.528503	260.132477	25.850620	-342.992950	69.094398	-56.446720	-391.496674	55.541656	-103.233299	-218.332138	39.666451	-96.340851	-339.552338	673.130371	-356.914215	-311.526459	466.692963	-315.777252	-373.932251	275.047546	-330.088501	-308.188660	70.149323	-316.606537	-314.507782	51.216240	-253.771072	-192.963058	44.978283	-377.894379
25	0.24000000	-235.421875	1387.421753	45.682495	-352.121948	1373.810913	-298.168091	-342.117676	1433.217163	-106.173485	-185.518417	1319.248901	-147.937271	-229.965790	1116.672607	177.736938	-316.944580	1076.618286	-410.119476	-194.448112	897.463501	131.541542	-211.169640	886.108551	-392.052948	-187.914581	898.932678	-24.818439	-285.237091	903.203735	-266.825195	-376.153717	932.126038	-36.770679	-408.553040	924.887268	-113.289635	-392.353378	928.506653	-75.030157	-376.657898	1152.897217	-85.790329	-150.867798	1168.290771	-173.195343	-236.357254	632.811157	53.300983	-316.385681	459.658051	-2.547056	-339.524872	260.228271	26.008669	-342.944427	69.016708	-56.490379	-391.585663	55.496140	-103.195366	-218.328400	39.684341	-96.331627	-339.444855	673.066101	-356.903412	-311.466766	466.738922	-315.729523	-373.562012	275.003632	-330.284760	-308.155304	70.177834	-316.632324	-314.523743	51.199402	-253.799026	-192.950592	45.033424	-377.839417
